<?xml version="1.0" encoding="UTF-8"?>
<!-- Do not edit this file with editors other than draw.io -->
<!DOCTYPE svg PUBLIC "-//W3C//DTD SVG 1.1//EN" "http://www.w3.org/Graphics/SVG/1.1/DTD/svg11.dtd">
<svg xmlns="http://www.w3.org/2000/svg" style="background: transparent; background-color: transparent; color-scheme: light dark;" xmlns:xlink="http://www.w3.org/1999/xlink" version="1.1" width="239px" height="239px" viewBox="-0.5 -0.5 239 239" content="&lt;mxfile host=&quot;app.diagrams.net&quot; agent=&quot;Mozilla/5.0 (Windows NT 10.0; Win64; x64) AppleWebKit/537.36 (KHTML, like Gecko) Chrome/139.0.0.0 Safari/537.36&quot; version=&quot;28.0.6&quot;&gt;&#10;  &lt;diagram name=&quot;ページ1&quot; id=&quot;c0VvM2LvkA02qUkqentS&quot;&gt;&#10;    &lt;mxGraphModel dx=&quot;1624&quot; dy=&quot;800&quot; grid=&quot;1&quot; gridSize=&quot;10&quot; guides=&quot;1&quot; tooltips=&quot;1&quot; connect=&quot;1&quot; arrows=&quot;1&quot; fold=&quot;1&quot; page=&quot;1&quot; pageScale=&quot;1&quot; pageWidth=&quot;827&quot; pageHeight=&quot;1169&quot; math=&quot;0&quot; shadow=&quot;0&quot;&gt;&#10;      &lt;root&gt;&#10;        &lt;mxCell id=&quot;0&quot; /&gt;&#10;        &lt;mxCell id=&quot;1&quot; parent=&quot;0&quot; /&gt;&#10;        &lt;mxCell id=&quot;KoN-8huIX5O7E5rS92Vg-1&quot; value=&quot;&quot; style=&quot;sketch=0;points=[[0,0,0],[0.25,0,0],[0.5,0,0],[0.75,0,0],[1,0,0],[0,1,0],[0.25,1,0],[0.5,1,0],[0.75,1,0],[1,1,0],[0,0.25,0],[0,0.5,0],[0,0.75,0],[1,0.25,0],[1,0.5,0],[1,0.75,0]];outlineConnect=0;fontColor=#232F3E;fillColor=#ED7100;strokeColor=#ffffff;dashed=0;verticalLabelPosition=bottom;verticalAlign=top;align=center;html=1;fontSize=12;fontStyle=0;aspect=fixed;shape=mxgraph.aws4.resourceIcon;resIcon=mxgraph.aws4.ecr;&quot; vertex=&quot;1&quot; parent=&quot;1&quot;&gt;&#10;          &lt;mxGeometry x=&quot;350&quot; y=&quot;260&quot; width=&quot;78&quot; height=&quot;78&quot; as=&quot;geometry&quot; /&gt;&#10;        &lt;/mxCell&gt;&#10;        &lt;mxCell id=&quot;KoN-8huIX5O7E5rS92Vg-2&quot; value=&quot;&quot; style=&quot;sketch=0;points=[[0,0,0],[0.25,0,0],[0.5,0,0],[0.75,0,0],[1,0,0],[0,1,0],[0.25,1,0],[0.5,1,0],[0.75,1,0],[1,1,0],[0,0.25,0],[0,0.5,0],[0,0.75,0],[1,0.25,0],[1,0.5,0],[1,0.75,0]];outlineConnect=0;fontColor=#232F3E;fillColor=#ED7100;strokeColor=#ffffff;dashed=0;verticalLabelPosition=bottom;verticalAlign=top;align=center;html=1;fontSize=12;fontStyle=0;aspect=fixed;shape=mxgraph.aws4.resourceIcon;resIcon=mxgraph.aws4.ecs;&quot; vertex=&quot;1&quot; parent=&quot;1&quot;&gt;&#10;          &lt;mxGeometry x=&quot;210&quot; y=&quot;260&quot; width=&quot;78&quot; height=&quot;78&quot; as=&quot;geometry&quot; /&gt;&#10;        &lt;/mxCell&gt;&#10;        &lt;mxCell id=&quot;KoN-8huIX5O7E5rS92Vg-3&quot; value=&quot;&quot; style=&quot;sketch=0;points=[[0,0,0],[0.25,0,0],[0.5,0,0],[0.75,0,0],[1,0,0],[0,1,0],[0.25,1,0],[0.5,1,0],[0.75,1,0],[1,1,0],[0,0.25,0],[0,0.5,0],[0,0.75,0],[1,0.25,0],[1,0.5,0],[1,0.75,0]];outlineConnect=0;fontColor=#232F3E;fillColor=#C925D1;strokeColor=#ffffff;dashed=0;verticalLabelPosition=bottom;verticalAlign=top;align=center;html=1;fontSize=12;fontStyle=0;aspect=fixed;shape=mxgraph.aws4.resourceIcon;resIcon=mxgraph.aws4.rds;&quot; vertex=&quot;1&quot; parent=&quot;1&quot;&gt;&#10;          &lt;mxGeometry x=&quot;370&quot; y=&quot;370&quot; width=&quot;78&quot; height=&quot;78&quot; as=&quot;geometry&quot; /&gt;&#10;        &lt;/mxCell&gt;&#10;        &lt;mxCell id=&quot;KoN-8huIX5O7E5rS92Vg-4&quot; value=&quot;&quot; style=&quot;sketch=0;points=[[0,0,0],[0.25,0,0],[0.5,0,0],[0.75,0,0],[1,0,0],[0,1,0],[0.25,1,0],[0.5,1,0],[0.75,1,0],[1,1,0],[0,0.25,0],[0,0.5,0],[0,0.75,0],[1,0.25,0],[1,0.5,0],[1,0.75,0]];outlineConnect=0;fontColor=#232F3E;fillColor=#DD344C;strokeColor=#ffffff;dashed=0;verticalLabelPosition=bottom;verticalAlign=top;align=center;html=1;fontSize=12;fontStyle=0;aspect=fixed;shape=mxgraph.aws4.resourceIcon;resIcon=mxgraph.aws4.secrets_manager;&quot; vertex=&quot;1&quot; parent=&quot;1&quot;&gt;&#10;          &lt;mxGeometry x=&quot;240&quot; y=&quot;420&quot; width=&quot;78&quot; height=&quot;78&quot; as=&quot;geometry&quot; /&gt;&#10;        &lt;/mxCell&gt;&#10;      &lt;/root&gt;&#10;    &lt;/mxGraphModel&gt;&#10;  &lt;/diagram&gt;&#10;&lt;/mxfile&gt;&#10;" resource="https://app.diagrams.net/#HNickelth%2FPapyrus%2Fdev%2Finvoice-aws-architect.drawio.svg"><defs/><g><g data-cell-id="0"><g data-cell-id="1"><g data-cell-id="KoN-8huIX5O7E5rS92Vg-1"><g><path d="M 140 0 L 218 0 L 218 78 L 140 78 Z" fill="#ed7100" stroke="none" pointer-events="all" style="fill: light-dark(rgb(237, 113, 0), rgb(216, 109, 12));"/><path d="M 177.13 35.84 C 176.59 36.16 176.25 36.74 176.25 37.37 L 176.25 67.71 L 153.31 54.88 L 153.31 25.05 L 179.06 10.13 L 201.94 21.47 Z M 204.61 21.44 C 204.61 20.81 204.27 20.22 203.67 19.88 L 179.92 8.11 C 179.38 7.8 178.71 7.8 178.17 8.11 L 152 23.28 C 151.46 23.59 151.12 24.18 151.12 24.8 L 151.12 55.13 C 151.12 55.76 151.46 56.34 152.01 56.66 L 175.8 69.97 C 176.07 70.12 176.38 70.2 176.68 70.2 C 176.98 70.2 177.29 70.12 177.56 69.97 C 178.1 69.65 178.44 69.07 178.44 68.44 L 178.44 37.62 L 203.73 22.96 C 204.27 22.65 204.61 22.07 204.61 21.44 Z M 204.66 54.95 L 183.9 67.64 L 183.9 56.27 L 194.72 49.29 L 194.8 48.8 C 194.82 48.67 194.83 48.67 194.83 48.08 L 194.86 34.51 L 204.69 28.82 Z M 206 26.54 C 205.46 26.23 204.79 26.23 204.24 26.54 L 193.78 32.61 C 193.45 32.79 192.68 33.21 192.68 34.07 L 192.64 48.02 L 182.66 54.46 C 182.07 54.82 181.71 55.38 181.71 55.97 L 181.71 68.35 C 181.71 68.97 182.05 69.53 182.61 69.86 C 182.9 70.03 183.22 70.11 183.55 70.11 C 183.86 70.11 184.18 70.03 184.47 69.86 L 205.97 56.71 C 206.51 56.4 206.85 55.81 206.85 55.19 L 206.88 28.07 C 206.88 27.44 206.54 26.86 206 26.54 Z" fill="#ffffff" stroke="none" pointer-events="all" style="fill: light-dark(rgb(255, 255, 255), rgb(18, 18, 18));"/></g></g><g data-cell-id="KoN-8huIX5O7E5rS92Vg-2"><g><path d="M 0 0 L 78 0 L 78 78 L 0 78 Z" fill="#ed7100" stroke="none" pointer-events="all" style="fill: light-dark(rgb(237, 113, 0), rgb(216, 109, 12));"/><path d="M 64.71 47.49 L 55.95 42.23 L 55.95 29.73 C 55.95 29.34 55.75 28.98 55.41 28.78 L 42.83 21.44 L 42.83 10.86 L 64.71 23.79 Z M 66.36 22.22 L 42.29 8 C 41.95 7.8 41.54 7.8 41.19 7.99 C 40.85 8.19 40.64 8.55 40.64 8.94 L 40.64 22.07 C 40.64 22.46 40.85 22.82 41.18 23.02 L 53.77 30.36 L 53.77 42.85 C 53.77 43.24 53.97 43.59 54.3 43.79 L 65.24 50.35 C 65.41 50.46 65.6 50.51 65.8 50.51 C 65.99 50.51 66.17 50.46 66.34 50.37 C 66.68 50.17 66.89 49.81 66.89 49.42 L 66.89 23.16 C 66.89 22.78 66.69 22.42 66.36 22.22 Z M 38.94 67.86 L 13.29 54.23 L 13.29 23.79 L 35.17 10.86 L 35.17 21.47 L 23.65 28.8 C 23.33 29.01 23.14 29.35 23.14 29.73 L 23.14 48.32 C 23.14 48.73 23.37 49.11 23.73 49.29 L 38.44 56.95 C 38.76 57.11 39.14 57.12 39.45 56.95 L 53.73 49.57 L 62.51 54.85 Z M 65.27 53.95 L 54.33 47.38 C 54 47.19 53.6 47.18 53.26 47.35 L 38.95 54.75 L 25.33 47.66 L 25.33 30.33 L 36.85 22.99 C 37.17 22.79 37.36 22.44 37.36 22.07 L 37.36 8.94 C 37.36 8.55 37.15 8.19 36.81 7.99 C 36.47 7.8 36.05 7.8 35.71 8 L 11.64 22.22 C 11.31 22.42 11.11 22.78 11.11 23.16 L 11.11 54.89 C 11.11 55.29 11.33 55.66 11.69 55.85 L 38.44 70.07 C 38.6 70.16 38.77 70.2 38.95 70.2 C 39.13 70.2 39.31 70.15 39.48 70.06 L 65.23 55.84 C 65.58 55.65 65.79 55.3 65.8 54.91 C 65.81 54.51 65.6 54.15 65.27 53.95 Z" fill="#ffffff" stroke="none" pointer-events="all" style="fill: light-dark(rgb(255, 255, 255), rgb(18, 18, 18));"/></g></g><g data-cell-id="KoN-8huIX5O7E5rS92Vg-3"><g><path d="M 160 110 L 238 110 L 238 188 L 160 188 Z" fill="#c925d1" stroke="none" pointer-events="all" style="fill: light-dark(rgb(201, 37, 209), rgb(255, 124, 255));"/><path d="M 171.6 120.03 L 181.96 130.38 L 180.38 131.96 L 170.03 121.6 L 170.03 130.06 L 167.8 130.06 L 167.8 118.91 C 167.8 118.3 168.3 117.8 168.91 117.8 L 180.06 117.8 L 180.06 120.03 Z M 230.2 118.91 L 230.2 130.06 L 227.97 130.06 L 227.97 121.6 L 217.62 131.96 L 216.04 130.38 L 226.4 120.03 L 217.94 120.03 L 217.94 117.8 L 229.09 117.8 C 229.7 117.8 230.2 118.3 230.2 118.91 Z M 227.97 167.94 L 230.2 167.94 L 230.2 179.09 C 230.2 179.7 229.7 180.2 229.09 180.2 L 217.94 180.2 L 217.94 177.97 L 226.4 177.97 L 216.04 167.62 L 217.62 166.04 L 227.97 176.4 Z M 227.41 148.12 C 227.41 144.42 223.14 140.77 215.99 138.35 L 216.71 136.24 C 224.93 139.02 229.64 143.35 229.64 148.12 C 229.64 152.89 224.93 157.23 216.71 160.01 L 215.99 157.9 C 223.14 155.48 227.41 151.82 227.41 148.12 Z M 170.65 148.12 C 170.65 151.67 174.65 155.22 181.34 157.64 L 180.58 159.74 C 172.85 156.95 168.42 152.71 168.42 148.12 C 168.42 143.53 172.85 139.3 180.58 136.51 L 181.34 138.61 C 174.65 141.02 170.65 144.58 170.65 148.12 Z M 181.96 167.62 L 171.6 177.97 L 180.06 177.97 L 180.06 180.2 L 168.91 180.2 C 168.3 180.2 167.8 179.7 167.8 179.09 L 167.8 167.94 L 170.03 167.94 L 170.03 176.4 L 180.38 166.04 Z M 199 139.29 C 191.04 139.29 186.74 137.23 186.74 136.39 C 186.74 135.55 191.04 133.5 199 133.5 C 206.96 133.5 211.26 135.55 211.26 136.39 C 211.26 137.23 206.96 139.29 199 139.29 Z M 199.03 147.92 C 191.41 147.92 186.74 145.84 186.74 144.7 L 186.74 139.29 C 189.49 140.8 194.36 141.52 199 141.52 C 203.64 141.52 208.51 140.8 211.26 139.29 L 211.26 144.7 C 211.26 145.84 206.62 147.92 199.03 147.92 Z M 199.03 156.43 C 191.41 156.43 186.74 154.35 186.74 153.21 L 186.74 147.73 C 189.45 149.32 194.26 150.15 199.03 150.15 C 203.78 150.15 208.56 149.33 211.26 147.74 L 211.26 153.21 C 211.26 154.35 206.62 156.43 199.03 156.43 Z M 199 164.06 C 191.07 164.06 186.74 161.93 186.74 160.84 L 186.74 156.24 C 189.45 157.83 194.26 158.66 199.03 158.66 C 203.78 158.66 208.56 157.84 211.26 156.25 L 211.26 160.84 C 211.26 161.93 206.93 164.06 199 164.06 Z M 199 131.27 C 192.02 131.27 184.51 132.87 184.51 136.39 L 184.51 160.84 C 184.51 164.42 191.8 166.29 199 166.29 C 206.2 166.29 213.49 164.42 213.49 160.84 L 213.49 136.39 C 213.49 132.87 205.98 131.27 199 131.27 Z" fill="#ffffff" stroke="none" pointer-events="all" style="fill: light-dark(rgb(255, 255, 255), rgb(18, 18, 18));"/></g></g><g data-cell-id="KoN-8huIX5O7E5rS92Vg-4"><g><path d="M 30 160 L 108 160 L 108 238 L 30 238 Z" fill="#dd344c" stroke="none" pointer-events="all" style="fill: light-dark(rgb(221, 52, 76), rgb(255, 127, 147));"/><path d="M 67.62 202.74 C 67.62 203.51 68.24 204.13 69 204.13 C 69.76 204.13 70.38 203.51 70.38 202.74 C 70.38 201.98 69.76 201.36 69 201.36 C 68.24 201.36 67.62 201.98 67.62 202.74 Z M 65.39 202.74 C 65.39 200.75 67.01 199.13 69 199.13 C 70.99 199.13 72.61 200.75 72.61 202.74 C 72.61 204.34 71.56 205.69 70.11 206.16 L 70.11 209.03 L 67.89 209.03 L 67.89 206.16 C 66.44 205.69 65.39 204.34 65.39 202.74 Z M 79.03 196.77 L 58.97 196.77 L 58.97 211.26 L 79.03 211.26 L 79.03 207.91 L 75.69 207.91 L 75.69 205.69 L 79.03 205.69 L 79.03 202.34 L 75.69 202.34 L 75.69 200.11 L 79.03 200.11 Z M 62.31 194.54 L 75.68 194.54 L 75.69 188.97 C 75.69 186.06 72.5 183.4 69 183.4 L 69 183.4 C 67.3 183.4 65.58 184.04 64.28 185.16 C 63.03 186.23 62.31 187.62 62.31 188.97 Z M 77.91 188.97 L 77.91 194.54 L 80.14 194.54 C 80.76 194.54 81.26 195.04 81.26 195.66 L 81.26 212.37 C 81.26 212.99 80.76 213.49 80.14 213.49 L 57.86 213.49 C 57.24 213.49 56.74 212.99 56.74 212.37 L 56.74 195.66 C 56.74 195.04 57.24 194.54 57.86 194.54 L 60.09 194.54 L 60.09 188.97 C 60.09 186.97 61.09 184.96 62.83 183.46 C 64.52 182.01 66.77 181.17 69 181.17 L 69 181.17 C 73.75 181.17 77.92 184.82 77.91 188.97 Z M 45.83 215.77 L 47.64 214.46 C 44.59 210.25 42.9 205.31 42.7 200.11 L 45.6 200.11 L 45.6 197.89 L 42.7 197.89 C 42.92 192.72 44.61 187.81 47.64 183.62 L 45.83 182.31 C 42.52 186.89 40.7 192.25 40.47 197.89 L 37.8 197.89 L 37.8 200.11 L 40.47 200.11 C 40.68 205.78 42.51 211.17 45.83 215.77 Z M 84.42 220.4 C 80.22 223.44 75.29 225.13 70.11 225.34 L 70.11 222.4 L 67.89 222.4 L 67.89 225.34 C 62.71 225.13 57.78 223.44 53.58 220.4 L 52.27 222.21 C 56.85 225.53 62.23 227.35 67.89 227.57 L 67.89 230.2 L 70.11 230.2 L 70.11 227.57 C 75.77 227.35 81.14 225.53 85.73 222.21 Z M 53.58 177.68 C 57.78 174.64 62.71 172.96 67.89 172.74 L 67.89 175.6 L 70.11 175.6 L 70.11 172.74 C 75.29 172.96 80.22 174.64 84.42 177.68 L 85.73 175.87 C 81.14 172.56 75.77 170.73 70.11 170.51 L 70.11 167.8 L 67.89 167.8 L 67.89 170.51 C 62.23 170.73 56.85 172.56 52.27 175.87 Z M 97.52 197.89 C 97.3 192.25 95.47 186.89 92.17 182.31 L 90.36 183.62 C 93.39 187.81 95.07 192.72 95.3 197.89 L 92.4 197.89 L 92.4 200.11 L 95.3 200.11 C 95.09 205.31 93.41 210.25 90.36 214.46 L 92.17 215.77 C 95.49 211.17 97.32 205.78 97.53 200.11 L 100.2 200.11 L 100.2 197.89 Z M 87.26 182.36 L 95.99 173.62 L 94.42 172.05 L 85.68 180.78 Z M 50.74 215.73 L 42 224.46 L 43.58 226.04 L 52.31 217.3 Z M 56.37 184.8 L 39.83 168.26 L 38.26 169.84 L 54.8 186.37 Z M 84.82 213.24 L 99.74 228.16 L 98.16 229.74 L 83.24 214.82 Z" fill="#ffffff" stroke="none" pointer-events="all" style="fill: light-dark(rgb(255, 255, 255), rgb(18, 18, 18));"/></g></g></g></g></g></svg>